<?xml version="1.0" standalone="no"?>
<!DOCTYPE svg PUBLIC "-//W3C//DTD SVG 20010904//EN"
 "http://www.w3.org/TR/2001/REC-SVG-20010904/DTD/svg10.dtd">
<svg version="1.0" xmlns="http://www.w3.org/2000/svg"
 width="168.000000pt" height="168.000000pt" viewBox="0 0 168.000000 168.000000"
 preserveAspectRatio="xMidYMid meet">
<metadata>
Created by potrace 1.11, written by Peter Selinger 2001-2013
</metadata>
<g transform="translate(0.000000,168.000000) scale(0.100000,-0.100000)"
fill="#000000" stroke="none">
<path d="M977 1503 c-35 -56 -80 -90 -127 -98 -59 -10 -127 26 -158 83 -28 50
-44 52 -128 21 -77 -29 -107 -59 -94 -94 17 -43 12 -105 -12 -146 -35 -63
-133 -98 -189 -68 -11 5 -28 7 -38 4 -22 -7 -71 -111 -78 -165 -5 -35 -3 -39
37 -61 59 -33 94 -96 87 -154 -6 -56 -27 -88 -84 -128 -40 -28 -44 -35 -40
-63 3 -17 19 -60 35 -97 l31 -67 83 6 c73 5 87 3 117 -16 18 -12 31 -23 29
-25 -8 -8 -142 -33 -208 -40 -85 -8 -156 10 -183 47 -18 24 -19 32 -9 65 10
35 10 36 -4 18 -8 -11 -20 -37 -26 -58 -15 -49 2 -84 52 -109 48 -24 187 -23
309 2 52 10 98 17 103 14 10 -6 9 -82 -1 -109 -17 -44 8 -64 126 -105 58 -21
67 -17 101 40 25 42 87 80 131 80 65 0 132 -49 155 -114 8 -24 52 -18 136 20
67 30 87 53 70 83 -5 11 -10 39 -10 62 l0 42 45 -42 c66 -61 132 -55 161 14
17 41 7 75 -34 118 l-27 28 60 -3 60 -3 29 59 c15 33 31 76 33 97 5 35 3 39
-33 62 -47 30 -69 53 -83 89 -10 26 -7 30 63 87 137 112 216 217 216 287 0 52
-64 95 -138 93 l-37 -1 37 -10 c72 -19 88 -69 48 -147 -20 -41 -169 -196 -178
-186 -11 10 31 56 69 76 39 19 41 23 36 55 -8 49 -57 153 -78 165 -11 6 -27 5
-44 -1 -107 -41 -223 45 -213 158 3 26 8 55 12 64 11 24 -21 52 -87 77 -102
37 -103 37 -130 -6z m36 -296 c138 -68 217 -186 225 -334 l4 -82 -63 -40 -64
-41 -95 95 -95 95 0 59 c0 102 -68 181 -169 198 -71 11 -75 -3 -16 -62 l53
-54 -14 -53 c-14 -52 -15 -53 -68 -71 l-54 -18 -60 58 -59 58 4 -62 c8 -115
84 -187 199 -186 l57 1 73 -74 73 -73 -80 -37 c-97 -44 -224 -94 -241 -94 -27
0 -124 110 -156 177 -30 63 -32 75 -32 173 0 97 2 110 32 172 51 108 140 185
258 225 24 8 74 12 127 10 76 -3 95 -7 161 -40z m196 -537 c-12 -34 -21 -37
-39 -15 -14 17 -14 17 15 33 31 17 35 14 24 -18z m-184 -130 c38 -39 38 -40
19 -55 -58 -45 -221 -68 -308 -44 l-38 11 108 47 c60 26 123 54 139 64 17 9
32 16 35 17 3 0 23 -18 45 -40z m326 -156 c17 -21 0 -49 -32 -49 -24 0 -36 23
-25 51 7 19 40 18 57 -2z"/>
</g>
</svg>
